<svg width="24" height="24" viewBox="0 0 24 24" fill="none" xmlns="http://www.w3.org/2000/svg">
  <!-- PostgreSQL Elephant Icon -->
  <path d="M12 2C6.48 2 2 6.48 2 12s4.48 10 10 10 10-4.48 10-10S17.52 2 12 2z" fill="#336791"/>
  <path d="M12 4c-4.41 0-8 3.59-8 8s3.59 8 8 8 8-3.59 8-8-3.59-8-8-8z" fill="#FFFFFF"/>
  <!-- Elephant head -->
  <circle cx="12" cy="10" r="3" fill="#336791"/>
  <!-- Trunk -->
  <path d="M12 13c-1 0-2 1-2 2v3c0 1 1 2 2 2s2-1 2-2v-3c0-1-1-2-2-2z" fill="#336791"/>
  <!-- Ears -->
  <ellipse cx="8" cy="8" rx="2" ry="3" fill="#336791" opacity="0.7"/>
  <ellipse cx="16" cy="8" rx="2" ry="3" fill="#336791" opacity="0.7"/>
  <!-- Tusks -->
  <path d="M9 12c0 0 1-2 3-2s3 2 3 2" stroke="#FFFFFF" stroke-width="1.5" fill="none"/>
  <!-- Eyes -->
  <circle cx="10.5" cy="9" r="0.5" fill="#336791"/>
  <circle cx="13.5" cy="9" r="0.5" fill="#336791"/>
</svg>